<svg width="26" height="24" viewBox="0 0 26 24" fill="none" xmlns="http://www.w3.org/2000/svg">
<g clip-path="url(#clip0_3_38)">
<path d="M7.06208 2.4372L6.76871 0H0V2.4H4.5441L6.41667 18H23.879L26 2.4372H7.06208ZM21.6868 15.6H8.64128L7.35046 4.8372H23.1549L21.6868 15.6Z" fill="white"/>
<path d="M8.71868 24C10.0976 24 11.2154 22.9255 11.2154 21.6C11.2154 20.2745 10.0976 19.2 8.71868 19.2C7.33976 19.2 6.22192 20.2745 6.22192 21.6C6.22192 22.9255 7.33976 24 8.71868 24Z" fill="white"/>
<path d="M19.9541 24C21.333 24 22.4509 22.9255 22.4509 21.6C22.4509 20.2745 21.333 19.2 19.9541 19.2C18.5752 19.2 17.4573 20.2745 17.4573 21.6C17.4573 22.9255 18.5752 24 19.9541 24Z" fill="white"/>
</g>
<defs>
<clipPath id="clip0_3_38">
<rect width="26" height="24" fill="white"/>
</clipPath>
</defs>
</svg>
