<svg width="50" height="50" viewBox="0 0 50 50" fill="none" xmlns="http://www.w3.org/2000/svg">
<g clip-path="url(#clip0_6_30)">
<mask id="mask0_6_30" style="mask-type:luminance" maskUnits="userSpaceOnUse" x="0" y="0" width="50" height="50">
<path d="M50 0H0V50H50V0Z" fill="white"/>
</mask>
<g mask="url(#mask0_6_30)">
<path d="M25 0C11.1929 0 0 11.1929 0 25C0 38.8071 11.1929 50 25 50C38.8071 50 50 38.8071 50 25C50 11.1929 38.8071 0 25 0ZM25 47.9592C12.3398 47.9592 2.04082 37.6592 2.04082 25C2.04082 12.3398 12.3398 2.04082 25 2.04082C37.6592 2.04082 47.9592 12.3398 47.9592 25C47.9592 37.6592 37.6592 47.9592 25 47.9592Z" fill="#0057FF"/>
<path d="M25 7.78061C20.5561 7.78061 16.898 11.1255 16.3918 15.4337H16.3265V32.6959H33.6735V15.4337H33.6092C33.102 11.1255 29.4439 7.78061 25 7.78061ZM31.6327 30.6551H18.3674V21.2092C18.648 21.5531 19.0867 21.8531 19.9408 21.8531C21.2592 21.8531 22.1092 21.1255 22.1092 20.1949V19.302C22.1092 19.1877 22.1317 19.0743 22.1755 18.9686C22.2193 18.8629 22.2835 18.7667 22.3644 18.6858C22.4453 18.6049 22.5414 18.5407 22.6472 18.4969C22.7529 18.4532 22.8662 18.4306 22.9806 18.4306C23.095 18.4306 23.2084 18.4532 23.3141 18.4969C23.4198 18.5407 23.5159 18.6049 23.5968 18.6858C23.6778 18.7667 23.7419 18.8629 23.7857 18.9686C23.8295 19.0743 23.852 19.1877 23.852 19.302C23.852 19.3112 23.8469 19.3194 23.8469 19.3275C23.8469 19.3347 23.852 19.3378 23.852 19.3449V22.7041C23.852 22.7041 23.8204 24.5745 26.0204 24.5745C28.1725 24.5745 28.1888 22.7888 28.1888 22.7888V20.4929V20.4878C28.1888 20.124 28.3333 19.7752 28.5904 19.518C28.8477 19.2608 29.1964 19.1163 29.5602 19.1163C29.924 19.1163 30.2728 19.2608 30.53 19.518C30.7871 19.7752 30.9316 20.124 30.9316 20.4878C30.9316 20.5194 30.9531 20.5775 30.9531 20.5775C30.9531 20.5775 30.9878 21.199 31.6337 21.4898L31.6327 30.6551ZM23.4694 40.9439C23.4694 41.3498 23.6306 41.7392 23.9177 42.0262C24.2047 42.3133 24.5941 42.4745 25 42.4745C25.4059 42.4745 25.7953 42.3133 26.0824 42.0262C26.3694 41.7392 26.5306 41.3498 26.5306 40.9439V33.6735H23.4694V40.9439Z" fill="#0057FF"/>
</g>
</g>
<defs>
<clipPath id="clip0_6_30">
<rect width="50" height="50" fill="white"/>
</clipPath>
</defs>
</svg>
