<?xml version="1.0" encoding="utf-8"?>
<!-- Generator: Adobe Illustrator 24.1.2, SVG Export Plug-In . SVG Version: 6.00 Build 0)  -->
<svg version="1.1" id="Слой_1" xmlns="http://www.w3.org/2000/svg" xmlns:xlink="http://www.w3.org/1999/xlink" x="0px" y="0px"
	 viewBox="0 0 400 400" style="enable-background:new 0 0 400 400;" xml:space="preserve">
<style type="text/css">
	.st0{fill:url(#SVGID_1_);}
</style>
<g>
	<linearGradient id="SVGID_1_" gradientUnits="userSpaceOnUse" x1="49.4933" y1="198.5001" x2="355.4938" y2="198.5001">
		<stop  offset="0.1629" style="stop-color:#CCE0F4"/>
		<stop  offset="0.5733" style="stop-color:#1E9CD7"/>
		<stop  offset="0.7585" style="stop-color:#28A0D9"/>
		<stop  offset="0.8436" style="stop-color:#2EA2DA"/>
		<stop  offset="0.8933" style="stop-color:#2C9FD7"/>
		<stop  offset="0.9262" style="stop-color:#2696CF"/>
		<stop  offset="0.9544" style="stop-color:#1D87C1"/>
		<stop  offset="0.9797" style="stop-color:#0F72AD"/>
		<stop  offset="1" style="stop-color:#005B97"/>
	</linearGradient>
	<circle class="st0" cx="200.5" cy="198.5" r="153"/>
	<path d="M200.5,46c40.73,0,79.03,15.86,107.83,44.67c28.8,28.8,44.67,67.1,44.67,107.83s-15.86,79.03-44.67,107.83
		c-28.8,28.8-67.1,44.67-107.83,44.67s-79.03-15.86-107.83-44.67C63.86,277.53,48,239.23,48,198.5s15.86-79.03,44.67-107.83
		S159.77,46,200.5,46 M200.5,45C115.72,45,47,113.72,47,198.5S115.72,352,200.5,352S354,283.28,354,198.5S285.28,45,200.5,45
		L200.5,45z"/>
</g>
<g>
	<g>
		<path d="M109.42,158.95l35.64,35.64l-2.99,2.99l-35.64-35.64L109.42,158.95z"/>
		<path d="M167.88,156.81c3.15,5.81,3.56,12.63-2.63,18.82c-6.91,6.91-16.57,7.1-25.07-1.41c-6.97-6.98-9.41-17.48-1.28-25.61
			c7.02-7.02,14.48-5.31,18.54-2.25l-2.82,2.82c-3.78-2.12-8.68-2.82-13.38,1.88c-5.86,5.86-4.59,13.76,1.77,20.12
			c6.06,6.06,14.04,7.85,19.85,2.05c4.04-4.04,4.58-8.35,2.2-13.61L167.88,156.81z"/>
		<path d="M169.96,144.85c6.62,6.51,14.29,6.99,19.6,1.69c5.2-5.2,4.27-9.66,3.18-12.75l2.82-2.82c2.2,4.52,3.09,11.27-3.71,18.07
			c-8.4,8.4-18.34,5-24.8-1.47c-7.28-7.28-9.62-17.47-1.55-25.54c8.51-8.51,18-4.45,22.78,0.33c0.71,0.71,1.43,1.43,2.03,2.14
			L169.96,144.85z M185.24,125.08c-5.1-4.99-12.05-5.97-17.47-0.55c-5.69,5.69-4.63,11.96,0.11,17.91L185.24,125.08z"/>
		<path d="M121.29,269.27l13.49-13.49c7.41-7.41,15-7.77,20.15-2.63c4.23,4.23,4.21,9.74,1.82,13.76
			c3.48-2.05,10.56-4.15,16.16,1.46c7.13,7.13,4.48,16.09-2.27,22.83l-13.71,13.71L121.29,269.27z M149.11,272.1
			c6.69-6.69,6.94-11.52,2.82-15.65c-3.51-3.51-9.02-3.71-14.44,1.71l-10.73,10.73l12.78,12.78L149.11,272.1z M157.32,299.43
			l10.89-10.89c5.09-5.09,7-11.69,1.76-16.93c-4.53-4.53-10.79-4.49-18.58,3.31l-9.29,9.29L157.32,299.43z"/>
		<path d="M203.95,243.02c2.49,2.5,6.52,6.41,7.49,7.38l-2.65,2.65c-0.77-0.55-2.51-2.18-4.6-4.26c1.84,4.17,1.06,9.02-3.86,13.94
			c-3.98,3.98-10.49,7.64-18.28-0.15l-16.85-16.85l2.71-2.71l16.24,16.24c3.72,3.72,8.6,6.06,14.08,0.59
			c6.19-6.19,5.31-11.72-1.97-19l-13.09-13.09l2.76-2.76L203.95,243.02z"/>
		<path d="M233.31,213.56c3.15,5.81,3.56,12.63-2.63,18.82c-6.91,6.91-16.57,7.1-25.07-1.41c-6.98-6.98-9.41-17.48-1.28-25.61
			c7.02-7.02,14.48-5.31,18.54-2.25l-2.82,2.82c-3.78-2.12-8.68-2.82-13.38,1.88c-5.86,5.86-4.6,13.76,1.77,20.12
			c6.06,6.06,14.04,7.85,19.85,2.05c4.04-4.04,4.58-8.35,2.2-13.61L233.31,213.56z"/>
		<path d="M237.65,199.55c0.05-5.04,0.56-20.01,0.85-27.12l3.54-3.54l-0.81,21.08l27.65,3l-3.43,3.43l-24.59-2.81l-0.52,8.66
			l9.62,9.62l-2.76,2.76l-37.53-37.52l2.76-2.76L237.65,199.55z"/>
		<path d="M261.32,175.68c6.62,6.51,14.29,6.99,19.6,1.69c5.2-5.2,4.27-9.66,3.18-12.75l2.82-2.82c2.2,4.52,3.09,11.27-3.71,18.07
			c-8.4,8.4-18.34,5-24.8-1.47c-7.28-7.28-9.62-17.47-1.55-25.54c8.51-8.51,18-4.45,22.78,0.33c0.71,0.71,1.43,1.43,2.03,2.14
			L261.32,175.68z M276.6,155.91c-5.1-4.99-12.05-5.97-17.47-0.55c-5.69,5.69-4.63,11.96,0.11,17.91L276.6,155.91z"/>
		<path d="M271.28,139.64l5.14-5.14l-7.94-7.94l2.77-2.76l7.94,7.94l6.58-6.58l2.39,2.39l-6.58,6.58l16.55,16.55
			c2.85,2.85,5.14,3.82,7.8,1.16c0.83-0.83,1.94-2.04,2.57-3.18l2.24,2.24c-0.58,1.3-1.81,2.72-2.97,3.89
			c-3.54,3.54-7.16,3.9-11.23-0.17l-17.72-17.72l-5.14,5.14L271.28,139.64z"/>
	</g>
</g>
</svg>
